<?xml version="1.0" encoding="UTF-8"?>
<svg xmlns="http://www.w3.org/2000/svg" viewBox="0 0 512 512" width="512" height="512">
<path d="M243.19 0.08C251.73 0.08 260.27 0.08 268.81 0.08C272.06 1.91 280.05 1.4 284.13 2.17C294.76 4.19 305.21 6.63 315.4 10.21C354.8 24.02 390.9 53.21 411.78 89.67C420.41 104.75 427.37 120.6 431.82 137.42C438.65 163.29 439.68 192.49 432.79 218.47C424.23 250.75 406.39 278.93 388.28 306.66C369.85 334.87 350.87 362.69 334.26 392C321.32 414.8 309.92 438.36 299.31 462.28C294.13 473.98 290.06 490.84 281.77 500.37C278.72 503.86 274.77 506.9 270.58 508.85C268.03 510.02 263.9 510.23 261.85 511.92C257.97 511.92 254.09 511.92 250.21 511.92C248.49 510.29 244.2 509.96 241.86 508.87C237.01 506.61 232.5 502.8 229.28 498.52C221.69 488.4 217.17 470.93 211.74 459.02C200.42 434.23 188.56 409.69 174.71 386.14C160.56 362.09 145.01 338.95 129.78 315.58C99.03 268.41 70.13 226.24 75.23 166.69C76.28 154.38 78.58 141.97 82.23 130.21C87.59 112.94 95.49 96.88 105.26 81.67C127.2 47.52 161.93 22.51 199.72 9.16C208.81 5.95 218.64 3.56 228.2 2.11C232.09 1.53 240.08 1.83 243.19 0.08ZM415.16 170.74C416.61 164.73 412.89 149.9 411.21 143.62C404.13 117.18 391.31 92.58 372.27 72.62C358.56 58.23 342.75 45.99 324.89 37.25C255.35 3.19 175.56 25.73 128.79 85.53C114.52 103.77 105.01 125.32 99.81 147.73C98.44 153.64 95.36 164.94 96.82 170.7C100.15 170.7 103.47 170.7 106.79 170.7C108 165.15 108.2 159.34 109.16 153.73C110.77 144.28 113.66 134.75 117.21 125.88C133.53 85.18 167.55 53.9 208.75 39.73C221.34 35.4 234.69 32.82 248.05 32.14C253.37 31.87 259.67 31.1 263.71 35.32C268.88 40.72 266.66 50.16 259.63 52.7C254 54.73 246.52 53.44 240.57 54.22C228 55.86 215.85 59.29 204.24 64.24C172.93 77.57 147.13 105.54 135.83 137.48C133.04 145.37 127.23 162.77 128.94 170.74C146.51 170.74 164.08 170.74 181.65 170.74C183.57 166.65 183.73 161.68 185.23 157.39C188.87 147.03 194.76 137.21 202.47 129.31C231.5 99.57 280.88 99.6 309.74 129.55C317.28 137.37 323.3 147.13 326.77 157.39C328.22 161.69 328.44 166.65 330.35 170.74C358.62 170.74 386.89 170.74 415.16 170.74ZM250 128.29C241.46 129.59 233.41 132.31 226.2 137.14C220.49 140.96 215.64 146.02 211.76 151.66C184.86 190.68 220.19 241.79 265.82 233.8C272.53 232.63 278.75 229.79 284.53 226.29C324.32 202.16 313.4 141.11 269.22 129.8C263.07 128.23 256.36 127.32 250 128.29ZM250.03 139.08C253.72 138.68 257.93 138.25 261.28 140.11C267.21 143.41 268.32 151.95 263.62 156.76C260.26 160.2 256.48 159.32 252.25 160.3C247.16 161.48 242.66 163.91 239.34 168.04C233.83 174.88 236.41 183.68 231.81 188.56C228.48 192.11 223.01 193.01 218.77 190.59C211.58 186.49 213.03 177.32 214.82 170.6C219.07 154.62 233.14 140.92 250.03 139.08ZM182.03 192.02C153.56 192.02 125.1 192.02 96.63 192.02C98.63 227.37 118.09 258.58 136.81 287.49C161.23 325.17 186.72 362.01 207.79 401.7C217.22 419.44 225.9 437.68 233.76 456.17C236.19 461.89 238.61 467.63 240.84 473.43C241.89 476.12 242.77 480.52 244.78 482.46C246.59 477.5 245.22 463.06 245.22 457.06C245.22 437.89 245.22 418.72 245.22 399.55C245.22 390.8 242.51 373.3 256 373.31C269.62 373.31 266.77 391.22 266.77 400.01C266.77 419.19 266.77 438.36 266.77 457.53C266.77 464.04 265.36 478.03 267.22 483.6C269.31 481.34 270.09 477.33 271.25 474.42C273.86 467.87 276.47 461.31 279.26 454.83C287.72 435.11 297.1 415.73 307.22 396.78C327.49 358.83 352.34 323.91 375.23 287.54C393.74 258.14 413.1 227.7 415.37 192.02C386.9 192.02 358.44 192.02 329.97 192.02C324.05 230.32 288.56 259.44 249.45 255.81C238.3 254.77 228.03 251.05 218.27 245.77C207.25 239.8 198.4 229.87 191.86 219.39C186.72 211.15 183.47 201.63 182.03 192.02Z" fill="#080808" fill-rule="evenodd" stroke="#080808" stroke-width="0.25" stroke-linejoin="round"/>
<path d="M182.03 192.02C183.47 201.63 186.72 211.15 191.86 219.39C198.4 229.87 207.25 239.8 218.27 245.77C228.03 251.05 238.3 254.77 249.45 255.81C288.56 259.44 324.05 230.32 329.97 192.02C358.44 192.02 386.9 192.02 415.37 192.02C413.1 227.7 393.74 258.14 375.23 287.54C352.34 323.91 327.49 358.83 307.22 396.78C297.1 415.73 287.72 435.11 279.26 454.83C276.47 461.31 273.86 467.87 271.25 474.42C270.09 477.33 269.31 481.34 267.22 483.6C265.36 478.03 266.77 464.04 266.77 457.53C266.77 438.36 266.77 419.19 266.77 400.01C266.77 391.22 269.62 373.31 256 373.31C242.51 373.3 245.22 390.8 245.22 399.55C245.22 418.72 245.22 437.89 245.22 457.06C245.22 463.06 246.59 477.5 244.78 482.46C242.77 480.52 241.89 476.12 240.84 473.43C238.61 467.63 236.19 461.89 233.76 456.17C225.9 437.68 217.22 419.44 207.79 401.7C186.72 362.01 161.23 325.17 136.81 287.49C118.09 258.58 98.63 227.37 96.63 192.02C125.1 192.02 153.56 192.02 182.03 192.02Z" fill="#ffffff" fill-rule="evenodd" stroke="#ffffff" stroke-width="0.25" stroke-linejoin="round"/>
<path d="M415.16 170.74C386.89 170.74 358.62 170.74 330.35 170.74C328.44 166.65 328.22 161.69 326.77 157.39C323.3 147.13 317.28 137.37 309.74 129.55C280.88 99.6 231.5 99.57 202.47 129.31C194.76 137.21 188.87 147.03 185.23 157.39C183.73 161.68 183.57 166.65 181.65 170.74C164.08 170.74 146.51 170.74 128.94 170.74C127.23 162.77 133.04 145.37 135.83 137.48C147.13 105.54 172.93 77.57 204.24 64.24C215.85 59.29 228 55.86 240.57 54.22C246.52 53.44 254 54.73 259.63 52.7C266.66 50.16 268.88 40.72 263.71 35.32C259.67 31.1 253.37 31.87 248.05 32.14C234.69 32.82 221.34 35.4 208.75 39.73C167.55 53.9 133.53 85.18 117.21 125.88C113.66 134.75 110.77 144.28 109.16 153.73C108.2 159.34 108 165.15 106.79 170.7C103.47 170.7 100.15 170.7 96.82 170.7C95.36 164.94 98.44 153.64 99.81 147.73C105.01 125.32 114.52 103.77 128.79 85.53C175.56 25.73 255.35 3.19 324.89 37.25C342.75 45.99 358.56 58.23 372.27 72.62C391.31 92.58 404.13 117.18 411.21 143.62C412.89 149.9 416.61 164.73 415.16 170.74Z" fill="#ed5564" fill-rule="evenodd" stroke="#ed5564" stroke-width="0.25" stroke-linejoin="round"/>
<path d="M250 128.29C256.36 127.32 263.07 128.23 269.22 129.8C313.4 141.11 324.32 202.16 284.53 226.29C278.75 229.79 272.53 232.63 265.82 233.8C220.19 241.79 184.86 190.68 211.76 151.66C215.64 146.02 220.49 140.96 226.2 137.14C233.41 132.31 241.46 129.59 250 128.29ZM250.03 139.08C233.14 140.92 219.07 154.62 214.82 170.6C213.03 177.32 211.58 186.49 218.77 190.59C223.01 193.01 228.48 192.11 231.81 188.56C236.41 183.68 233.83 174.88 239.34 168.04C242.66 163.91 247.16 161.48 252.25 160.3C256.48 159.32 260.26 160.2 263.62 156.76C268.32 151.95 267.21 143.41 261.28 140.11C257.93 138.25 253.72 138.68 250.03 139.08Z" fill="#9fd368" fill-rule="evenodd" stroke="#9fd368" stroke-width="0.25" stroke-linejoin="round"/>
</svg>